PathFileType	4	(X/Y/Z)	C:\Users\Basilio\Documents\Thesis Gigler\squatting_fais\c3dfiles\039\SLS_pre_back1\markers_experimental.trc
DataRate	CameraRate	NumFrames	NumMarkers	Units	OrigDataRate	OrigDataStartFrame	OrigNumFrames
200.000000	200.000000	4	63	mm	200.000000	887	1775
Frame#	Time	FHD			LBHD			RBHD			C7			T10			CLAV			LSHO			LUUPA			LMUPA			LDUPA			LLEP			LMEP			LRAD			LUL			LRFIN			RSHO			RUPA1			RMUPA			RDUPA			RLEP			RMEP			RRAD			RUL			RUFIN			LASI			RASI			USACR			LSACR			RSACR			LTHI1			LTHI2			LTHI3			LTHI4			LLFC			LMFC			LTIB1			LTIB2			LTIB3			LTIB4			LLMAL			LMMAL			LHEE			LMT1			LMT2			LMT5			RTHI			RTHI2			RTHI3			RTHI4			RLFC			RMFC			RTIB1			RTIB2			RTIB3			RTIB4			RLMAL			RMMAL			RHEE			RMT1			RMT2			RMT5			*61			*62			
		X1	Y1	Z1	X2	Y2	Z2	X3	Y3	Z3	X4	Y4	Z4	X5	Y5	Z5	X6	Y6	Z6	X7	Y7	Z7	X8	Y8	Z8	X9	Y9	Z9	X10	Y10	Z10	X11	Y11	Z11	X12	Y12	Z12	X13	Y13	Z13	X14	Y14	Z14	X15	Y15	Z15	X16	Y16	Z16	X17	Y17	Z17	X18	Y18	Z18	X19	Y19	Z19	X20	Y20	Z20	X21	Y21	Z21	X22	Y22	Z22	X23	Y23	Z23	X24	Y24	Z24	X25	Y25	Z25	X26	Y26	Z26	X27	Y27	Z27	X28	Y28	Z28	X29	Y29	Z29	X30	Y30	Z30	X31	Y31	Z31	X32	Y32	Z32	X33	Y33	Z33	X34	Y34	Z34	X35	Y35	Z35	X36	Y36	Z36	X37	Y37	Z37	X38	Y38	Z38	X39	Y39	Z39	X40	Y40	Z40	X41	Y41	Z41	X42	Y42	Z42	X43	Y43	Z43	X44	Y44	Z44	X45	Y45	Z45	X46	Y46	Z46	X47	Y47	Z47	X48	Y48	Z48	X49	Y49	Z49	X50	Y50	Z50	X51	Y51	Z51	X52	Y52	Z52	X53	Y53	Z53	X54	Y54	Z54	X55	Y55	Z55	X56	Y56	Z56	X57	Y57	Z57	X58	Y58	Z58	X59	Y59	Z59	X60	Y60	Z60	X61	Y61	Z61	X62	Y62	Z62	X63	Y63	Z63	

888	4.435	-118.672119140625	1566.91455078125	-674.0812377929689	-282.2625122070313	1555.950317382813	-790.8778076171877	-250.6991729736329	1559.779418945313	-652.5132446289064	-346.7325744628907	1408.191040039063	-729.0710449218751	-443.0068664550782	1121.351318359375	-760.9294433593751	nan	nan	nan	-274.6304321289063	1417.50634765625	-879.600036621094	-111.2023162841797	1376.59130859375	-987.3379516601565	-87.7205276489258	1406.2314453125	-954.3269653320315	-41.65144729614259	1382.41796875	-984.1262207031252	25.39831352233887	1387.637329101563	-976.7768554687502	25.41395568847657	1316.82373046875	-944.7237548828127	301.2889404296876	1406.079833984375	-876.240661621094	303.8294067382813	1414.154541015625	-952.197937011719	377.2899475097657	1449.484130859375	-866.9101562500002	-238.5369110107422	1397.076538085938	-579.3424072265626	-80.14171600341798	1322.056640625	-489.394989013672	-53.39612579345705	1355.785278320313	-514.9683227539064	-11.10933589935303	1317.332641601563	-494.2552795410157	51.8008499145508	1330.49072265625	-508.5078735351564	52.26150131225587	1263.960571289063	-549.0378417968751	333.8309020996094	1371.2060546875	-610.6054687500001	339.6027832031251	1359.40625	-535.2785034179689	415.8885192871095	1412.181884765625	-608.9376220703126	-350.5227661132813	909.717956542969	-901.4294433593752	-323.6429443359376	899.0191040039065	-683.2124023437501	-499.7359008789064	998.1022949218752	-766.9863281250001	-514.2128295898439	967.301452636719	-793.004577636719	-506.8060302734376	966.607116699219	-733.8784179687501	-402.2172851562501	650.3169555664064	-1004.326110839844	-358.1838989257813	579.7356567382814	-1025.155395507813	-310.8286132812501	585.4345703125001	-1021.675415039063	-376.3412475585938	520.7113037109376	-1015.484558105469	-361.9067687988282	435.8428955078126	-1017.208679199219	-328.6262512207032	383.9940490722657	-916.0828857421877	-451.3330993652345	331.3555603027344	-984.578308105469	-510.4025878906251	397.4094543457032	-1003.3134765625	-506.282684326172	355.1159973144532	-995.4125976562502	-570.5280761718751	335.7789306640626	-939.8189697265627	-754.0167236328126	371.9231567382813	-919.073425292969	-718.2238769531251	346.9498901367188	-842.9130859375002	-770.746520996094	438.5990295410157	-865.9356689453127	-795.832458496094	208.9337615966797	-828.7116699218752	-820.7913208007815	213.0314331054688	-863.632751464844	-865.6563110351565	261.8600769042969	-891.163757324219	-262.6013793945313	676.0278930664064	-620.5488281250001	-199.550277709961	653.6305541992189	-626.2640380859376	-174.3303527832032	674.9113769531251	-634.4699096679689	-178.071762084961	572.5969848632814	-638.9906616210939	-149.6764831542969	460.108856201172	-679.3330688476564	-132.8511657714844	472.2728881835939	-790.9973144531252	-191.5150756835938	271.1203613281251	-732.6318359375001	-294.3410644531251	243.2094421386719	-716.4340209960939	-256.4461364746094	219.0323638916016	-727.8934936523439	-264.1807861328126	174.3147735595703	-768.2379150390627	-361.9166259765626	115.5075149536133	-746.7318115234376	-336.2287292480469	132.120101928711	-833.9174804687502	-441.4842529296876	98.13169097900393	-796.0259399414065	-215.5554199218751	50.85174560546876	-809.9646606445315	-218.9702758789063	55.87187576293947	-763.7582397460939	-274.3451843261719	39.17883300781251	-711.5618896484376	nan	nan	nan	nan	nan	nan	
889	4.44	-118.527572631836	1566.2763671875	-674.2308349609376	-281.9183044433594	1555.256958007813	-790.9005126953127	-250.5708465576172	1558.953491210938	-652.6920776367189	-346.4803161621094	1407.484619140625	-729.1782836914064	-442.8311767578126	1120.770263671875	-760.9133911132814	nan	nan	nan	-274.7359619140626	1416.96923828125	-879.5906982421877	-111.2983016967774	1375.936279296875	-987.386657714844	-87.86642456054689	1405.23291015625	-954.401306152344	-41.80112838745118	1381.788696289063	-984.0150146484377	25.15853118896485	1387	-976.858825683594	25.40544509887696	1316.048706054688	-944.8605957031252	301.2441406250001	1405.16943359375	-876.2896118164065	303.6944885253907	1413.287719726563	-952.435241699219	377.2277526855469	1448.662841796875	-867.2631835937502	-238.2454528808594	1396.466796875	-579.5003662109376	-79.8534393310547	1321.312255859375	-489.4465332031251	-53.19323730468751	1354.91650390625	-515.1274414062501	-10.89669799804688	1316.537719726563	-494.4298706054689	51.96034622192384	1329.977416992188	-508.5367736816407	52.57447433471681	1263.089965820313	-549.0823974609376	333.8861083984376	1370.322875976563	-610.6575927734376	339.8769531250001	1358.680297851563	-535.4921264648439	416.0960693359376	1411.485961914063	-608.9538574218751	-350.6936645507813	908.9692382812502	-901.6118774414065	-323.6900024414063	898.3935546875002	-683.4047851562501	-499.7967224121095	997.5283203125002	-766.9421386718751	-514.3139038085939	966.5428466796877	-792.9809570312502	-506.8414916992189	965.995056152344	-733.7692260742189	-402.4356384277345	650.0900268554689	-1004.535827636719	-358.5472106933594	579.2741088867189	-1025.418823242188	-311.2369079589844	584.9429931640626	-1022.105712890625	-377.2281799316407	520.3529663085939	-1015.963134765625	-361.8999938964844	435.2536010742189	-1017.592407226563	-328.7082824707032	383.4420776367188	-916.5373535156252	-451.4629516601564	330.7216796875001	-984.6667480468752	-510.6831665039064	397.0657653808595	-1003.411987304688	-506.4625854492189	354.6466064453126	-995.6817626953127	-570.6447143554689	335.2751770019532	-940.0350341796877	-754.0600585937501	371.5997924804688	-918.896423339844	-718.2632446289064	346.6489562988282	-842.8669433593752	-770.662536621094	438.1250000000001	-865.6941528320315	-795.8372192382815	208.3001098632813	-828.463073730469	-820.8416137695315	212.5668945312501	-863.5798950195315	-865.6451416015627	261.5269470214844	-891.013610839844	-262.3235778808594	675.5090332031251	-620.7227172851564	-199.399398803711	653.4818725585939	-626.7414550781251	-174.1949462890625	674.8824462890626	-634.8759765625001	-177.6178741455078	572.0537109375001	-639.2684936523439	-149.2538146972657	460.1727600097657	-679.6914062500001	-132.562973022461	472.0019836425782	-791.287292480469	-191.3145446777344	270.9064331054688	-732.7259521484376	-294.1216125488282	243.1292266845704	-716.5336914062501	-256.3220520019532	218.9845733642579	-728.0067749023439	-264.1077575683594	174.2304992675782	-768.2849731445315	-361.8867492675782	115.486442565918	-746.7385864257814	-336.2391052246094	132.1059722900391	-833.9058227539065	-441.483856201172	98.13086700439456	-795.9685668945315	-215.5496826171876	50.88558578491212	-810.000915527344	-218.9307250976563	55.88999938964845	-763.8333129882814	-274.3615417480469	39.1750602722168	-711.5846557617189	nan	nan	nan	nan	nan	nan	
890	4.445	-118.3239517211914	1565.559936523438	-674.5434570312501	-282.1295166015626	1554.374267578125	-790.9864501953127	-250.4781188964844	1558.250244140625	-652.6620483398439	-346.2998657226563	1406.74462890625	-729.0892333984376	-442.5868225097657	1120.134155273438	-760.8156127929689	nan	nan	nan	-274.4530029296876	1416.147827148438	-879.4946289062502	-111.4902114868164	1375.043090820313	-987.4949340820315	-87.74265289306642	1404.949829101563	-954.4458007812502	-41.79744720458985	1380.869750976563	-984.2784423828127	25.2978744506836	1386.23046875	-977.1845703125002	25.31291770935059	1315.336791992188	-944.9162597656252	301.3098754882813	1404.313110351563	-876.5388183593752	303.8415527343751	1412.474487304688	-952.6167602539065	377.2001342773438	1447.750610351563	-867.3114013671877	-237.9174041748047	1395.47900390625	-579.3363647460939	-79.67522430419923	1320.65087890625	-489.5123901367189	-52.989803314209	1354.330444335938	-515.1494750976564	-10.66282939910889	1315.694702148438	-494.5716247558595	52.23590469360353	1329.03857421875	-508.6695251464845	52.83446502685548	1262.471069335938	-549.0856323242189	334.1591796875001	1369.690307617188	-610.6670532226564	340.1298828125001	1358.149780273438	-535.5355834960939	416.352264404297	1410.99365234375	-609.0498657226564	-350.8014831542969	908.3361816406252	-901.880554199219	-323.7426147460938	897.7202758789065	-683.5449829101564	-499.8846435546876	997.0219726562502	-767.0216064453126	-514.4522094726564	966.0294189453127	-792.9375000000002	-506.8257751464845	965.433776855469	-733.7970581054689	-402.6403808593751	649.4667968750001	-1004.697082519531	-358.8750305175782	578.8486938476564	-1025.718627929688	-311.5362243652344	584.4721069335939	-1022.5029296875	-377.0532531738282	519.4905395507814	-1016.280822753906	-361.9858398437501	434.7092285156251	-1017.911865234375	-328.9550170898438	382.4366455078126	-916.9398193359377	-451.6151428222657	330.2541503906251	-985.0872192382815	-510.9033508300782	396.6261291503907	-1003.635559082031	-506.6806945800782	354.2374267578126	-995.7613525390627	-570.8012695312501	334.9070129394532	-940.2304687500002	-754.1807861328126	371.1548767089844	-918.8239746093752	-718.0007934570314	345.7121582031251	-843.1553344726565	-770.6645507812502	437.7398986816407	-865.507019042969	-795.9030761718752	207.8544921875001	-828.4847412109377	-820.9048461914065	212.1675567626954	-863.4440917968752	-865.8015747070315	261.1687927246094	-890.7861938476565	-262.2007446289063	675.0894775390626	-620.7730712890626	-199.2258605957032	653.1282958984376	-626.5115356445314	-173.9917297363282	674.3801269531251	-634.8762207031251	-177.2732696533203	571.6817626953126	-639.5874023437501	-148.9340362548828	460.029266357422	-679.8900146484376	-132.1563262939453	471.8001098632814	-791.470153808594	-191.1256561279297	270.6721191406251	-732.8541870117189	-293.9077758789063	243.1044616699219	-716.5633544921876	-256.1434631347657	218.8608093261719	-728.0723876953126	-263.9803466796876	174.1476440429688	-768.4268798828127	-361.8574218750001	115.496452331543	-746.7347412109376	-336.2463378906251	132.068359375	-833.9175415039065	-441.4622497558595	98.11513519287112	-795.928405761719	-215.5642089843751	50.9098587036133	-810.0466308593752	-218.9481658935547	55.85462951660158	-763.8945922851564	-274.3879394531251	39.19562530517579	-711.5830078125001	nan	nan	nan	nan	nan	nan	
891	4.45	-118.1851348876953	1564.904296875	-674.3690795898439	-281.8128967285157	1553.764892578125	-790.9019165039065	-250.2881622314454	1557.755615234375	-652.6852416992189	-346.2354736328126	1406.068481445313	-728.9106445312501	-442.5507202148439	1119.53955078125	-760.8356933593751	nan	nan	nan	-274.5467834472657	1415.44287109375	-879.4297485351565	-111.4091949462891	1374.354370117188	-987.5330810546877	-87.61541748046876	1404.095825195313	-954.5848388671877	-41.83703613281251	1380.22607421875	-984.3876953125002	25.27681159973145	1385.50927734375	-977.228454589844	25.19901084899903	1314.600830078125	-944.988220214844	301.3020935058594	1403.504760742188	-876.8028564453127	303.7962646484376	1411.650756835938	-952.7986450195315	377.3416748046876	1446.779174804688	-867.4746093750002	-237.7286682128907	1394.765747070313	-579.3804321289064	-79.4037551879883	1319.664184570313	-489.6043090820314	-52.69822692871095	1353.5009765625	-515.1713256835939	-10.39347934722901	1314.8291015625	-494.5801696777345	52.45643997192384	1328.303588867188	-508.7880249023439	53.20080947875978	1261.801391601563	-549.3709106445314	334.5459594726563	1369.05859375	-610.7844848632814	340.4916381835938	1357.50341796875	-535.6467285156251	416.5210571289064	1410.442626953125	-609.0855102539064	-350.9093627929688	907.7593383789065	-902.1286621093752	-323.9454345703126	897.1325683593752	-683.5255737304689	-499.817108154297	995.8145751953127	-766.7388305664064	-514.5300903320314	965.4719238281252	-792.965515136719	-506.8670349121095	964.792907714844	-733.8073120117189	-402.8646850585939	648.9172363281251	-1004.862365722656	-359.1620178222657	578.3604125976564	-1026.052001953125	-312.3278808593751	584.2952270507814	-1022.968627929688	-377.2375793457032	519.3295898437501	-1016.458068847656	-362.2375183105469	434.1188354492189	-1018.249145507813	-328.9864501953126	381.9366149902344	-917.3986816406252	-451.7852172851564	329.7997741699219	-985.505798339844	-511.2624511718751	396.2382202148439	-1003.889038085938	-506.8308105468751	353.7091674804688	-995.956237792969	-570.9359130859376	334.5664062500001	-940.2144775390627	-754.1865844726564	370.3168640136719	-918.8301391601565	-718.0023193359376	345.2184448242188	-842.9363403320315	-770.660583496094	437.3103942871095	-865.3523559570315	-795.900085449219	207.2942962646485	-828.556579589844	-820.8104248046877	213.218490600586	-863.2122192382815	-865.9320068359377	260.7985534667969	-890.5051269531252	-262.0801086425782	674.6110229492189	-620.9768066406251	-199.5229644775391	652.0864868164064	-627.5376586914064	-173.9687042236328	674.0060424804689	-635.0104370117189	-176.9386291503907	571.1719970703126	-639.7367553710939	-148.8563079833985	459.5578002929689	-680.3164672851564	-131.9391326904297	471.5771484375001	-791.6389160156252	-190.9021301269532	270.6359558105469	-732.9981689453126	-293.7149658203126	242.9956054687501	-716.5528564453126	-255.979721069336	218.7314453125001	-728.1598510742189	-263.9233703613282	174.1671295166016	-768.5403442382815	-361.8710327148438	115.4175643920899	-746.7285156250001	-336.2749328613282	132.0702209472657	-833.9182128906252	-441.4556884765626	98.07997894287112	-795.9124145507815	-215.600082397461	50.8962745666504	-810.0989990234377	-218.936996459961	55.86543273925783	-763.8997192382814	-274.3318786621094	39.16475677490235	-711.6200561523439	nan	nan	nan	nan	nan	nan	
